<mxfile host="65bd71144e">
    <diagram id="5DfwSMmlrQ2DYcHCKKRp" name="ページ1">
        <mxGraphModel dx="954" dy="724" grid="1" gridSize="10" guides="1" tooltips="1" connect="1" arrows="1" fold="1" page="1" pageScale="1" pageWidth="827" pageHeight="1169" math="0" shadow="0">
            <root>
                <mxCell id="0"/>
                <mxCell id="1" parent="0"/>
                <mxCell id="14" value="" style="shape=image;verticalLabelPosition=bottom;labelBackgroundColor=default;verticalAlign=top;aspect=fixed;imageAspect=0;image=data:image/png,iVBORw0KGgoAAAANSUhEUgAAAhsAAAFBCAYAAADe2m2xAAAKn2lDQ1BJQ0MgUHJvZmlsZQAASImVlgdUk8kWx+f70kNCCyCdUEOR3gJICT106WAjJIGEEkMggIidxRVcUVREsCzIUhVclSJrQUCxLYqKXRdEBJR1sWDD8j7gENx957133s2ZzO/c786de+fMnPMHgIxnCYUpsCwAqYIMUaiPOzU6JpaKGwMQgJEfDhBZ7HQhIyQkACA2N//d3t1GohG7aTqd69+//1eT43DT2QBAIQjHc9LZqQifQMZTtlCUAQCqFPHrZmUIp/kUwgoipECEr09z4iw/neb4Wf4wExMe6gEAmgQAnsRiiRIBICkjfmomOxHJQ6IjbCHg8AUI8xB2SU1dyUG4FmFDJEaI8HR+evx3eRL/ljNekpPFSpTwbC8zhvfkpwtTWKv+z+P435aaIp7bwwBMNyDyDZ2ekTO7m7zSX8KC+KDgOeZzZuJnmCf2jZhjdrpH7BxzWJ7+krUpQQFznMD3ZkryZDDD55ib7hU2x6KVoZK9EkQejDlmieb3FSdHSPw8LlOSP4cXHjXHmfzIoDlOTw7zn4/xkPhF4lBJ/VyBj/v8vt6S3lPTv+uXz5SszeCF+0p6Z83XzxUw5nOmR0tq43A9veZjIiTxwgx3yV7ClBBJPDfFR+JPzwyTrM1ALuT82hDJGSax/ELmGHiBSGAFbAAdWGRwszOmG/BYKVwl4ifyMqgM5GVxqUwB22wh1crCyhaA6Xc6ew3e3J15f5ASft7HQ+6vbRECHfO+hG0AtEUDIFM776NlAyCvAkDnebZYlDnrQ0//YQARyAAFoAI0gS4wBKZIbXbACbghdfqBYBAOYsBywAY8kApEIAvkgg0gHxSC7WA3KAMHwSFQC46AY6AVnALnwAVwBVwH/eABGADD4AWYAO/AFARBOIgMUSAVSAvSh0wgK4gOuUBeUAAUCsVAcVAiJIDEUC60CSqEiqEyqAKqg36FTkLnoEtQH3QPGoTGoNfQJxgFk2AFWAM2gM1hOsyA/eFweBmcCKfBOXAevA0uhSvhw3ALfA6+AvfDA/ALeBIFUFIoJZQ2yhRFR3mgglGxqASUCLUWVYAqQVWiGlHtqB7UTdQAahz1EY1FU9BUtCnaCe2LjkCz0Wnoteit6DJ0LboF3Y2+iR5ET6C/YsgYdYwJxhHDxERjEjFZmHxMCaYa04w5j+nHDGPeYbFYJSwNa4/1xcZgk7CrsVux+7FN2A5sH3YIO4nD4VRwJjhnXDCOhcvA5eP24g7jzuJu4IZxH/BSeC28Fd4bH4sX4DfiS/D1+DP4G/gR/BRBlqBPcCQEEziEVYQiQhWhnXCNMEyYIsoRaURnYjgxibiBWEpsJJ4nPiS+kZKS0pFykFosxZdaL1UqdVTqotSg1EeSPMmY5EFaShKTtpFqSB2ke6Q3ZDLZgOxGjiVnkLeR68hd5MfkD9IUaTNppjRHep10uXSL9A3plzIEGX0ZhsxymRyZEpnjMtdkxmUJsgayHrIs2bWy5bInZe/ITspR5CzlguVS5bbK1ctdkhuVx8kbyHvJc+Tz5A/Jd8kPUVAUXYoHhU3ZRKminKcMK2AVaApMhSSFQoUjCr0KE4ryijaKkYrZiuWKpxUHlFBKBkpMpRSlIqVjSreVPi3QWMBYwF2wZUHjghsL3iurKbspc5ULlJuU+5U/qVBVvFSSVXaotKo8UkWrGqsuVs1SPaB6XnVcTUHNSY2tVqB2TO2+OqxurB6qvlr9kPpV9UkNTQ0fDaHGXo0ujXFNJU03zSTNXZpnNMe0KFouWnytXVpntZ5TFakMagq1lNpNndBW1/bVFmtXaPdqT+nQdCJ0Nuo06TzSJerSdRN0d+l26k7oaekF6uXqNejd1yfo0/V5+nv0e/TfG9AMogw2G7QajNKUaUxaDq2B9tCQbOhqmGZYaXjLCGtEN0o22m903Rg2tjXmGZcbXzOBTexM+Cb7TfoWYhY6LBQsrFx4x5RkyjDNNG0wHTRTMgsw22jWavbSXM881nyHeY/5VwtbixSLKosHlvKWfpYbLdstX1sZW7Gtyq1uWZOtva3XWbdZv7IxseHaHLC5a0uxDbTdbNtp+8XO3k5k12g3Zq9nH2e/z/4OXYEeQt9Kv+iAcXB3WOdwyuGjo51jhuMxx7+cTJ2SneqdRhfRFnEXVS0actZxZjlXOA+4UF3iXH52GXDVdmW5Vro+cdN147hVu40wjBhJjMOMl+4W7iL3Zvf3Ho4eazw6PFGePp4Fnr1e8l4RXmVej711vBO9G7wnfGx9Vvt0+GJ8/X13+N5hajDZzDrmhJ+93xq/bn+Sf5h/mf+TAOMAUUB7IBzoF7gz8GGQfpAgqDUYBDODdwY/CqGFpIX8thi7OGRx+eJnoZahuaE9YZSwFWH1Ye/C3cOLwh9EGEaIIzojZSKXRtZFvo/yjCqOGog2j14TfSVGNYYf0xaLi42MrY6dXOK1ZPeS4aW2S/OX3l5GW5a97NJy1eUpy0+vkFnBWnE8DhMXFVcf95kVzKpkTcYz4/fFT7A92HvYLzhunF2cMa4zt5g7kuCcUJwwmuicuDNxjOfKK+GN8z34ZfxXSb5JB5PeJwcn1yR/S4lKaUrFp8alnhTIC5IF3Ss1V2av7BOaCPOFA2mOabvTJkT+oup0KH1ZeluGAiKIrooNxT+IBzNdMsszP2RFZh3PlssWZF9dZbxqy6qRHO+cX1ajV7NXd+Zq527IHVzDWFOxFlobv7Zzne66vHXD633W124gbkje8PtGi43FG99uitrUnqeRtz5v6AefHxrypfNF+Xc2O20++CP6R/6PvVust+zd8rWAU3C50KKwpPDzVvbWyz9Z/lT607dtCdt6i+yKDmzHbhdsv73DdUdtsVxxTvHQzsCdLbuouwp2vd29YvelEpuSg3uIe8R7BkoDStv26u3dvvdzGa+sv9y9vGmf+r4t+97v5+y/ccDtQONBjYOFBz/9zP/5boVPRUulQWXJIeyhzEPPqiKren6h/1JXrVpdWP2lRlAzUBta211nX1dXr15f1AA3iBvGDi89fP2I55G2RtPGiialpsKj4Kj46PNf4369fcz/WOdx+vHGE/on9jVTmgtaoJZVLROtvNaBtpi2vpN+JzvbndqbfzP7reaU9qny04qni84Qz+Sd+XY25+xkh7Bj/FziuaHOFZ0PuqK7bnUv7u4973/+4gXvC109jJ6zF50vnrrkeOnkZfrl1it2V1qu2l5t/t329+Zeu96Wa/bX2q47XG/vW9R35obrjXM3PW9euMW8daU/qL/vdsTtu3eW3hm4y7k7ei/l3qv7mfenHqx/iHlY8Ej2Uclj9ceVfxj90TRgN3B60HPw6pOwJw+G2EMvnqY//Tyc94z8rGREa6Ru1Gr01Jj32PXnS54PvxC+mBrP/1Puz30vDV+e+Mvtr6sT0RPDr0Svvr3e+kblTc1bm7edkyGTj9+lvpt6X/BB5UPtR/rHnk9Rn0amsj7jPpd+MfrS/tX/68Nvqd++CVki1owUQCEDTkgA4HUNAOQYACiIriAumdXRMwbNav8ZAv+JZ7X2jNkBULMegEhkTEuiA26IjEVYFhkhCIe7AdjaWjLmNO+MPp82xS4ArGjofvfcx1UV68E/bFa7f1f3P2cgyfq3+V9VwQN0W9gxgwAAAFZlWElmTU0AKgAAAAgAAYdpAAQAAAABAAAAGgAAAAAAA5KGAAcAAAASAAAARKACAAQAAAABAAACG6ADAAQAAAABAAABQQAAAABBU0NJSQAAAFNjcmVlbnNob3SZ4XAZAAAB1mlUWHRYTUw6Y29tLmFkb2JlLnhtcAAAAAAAPHg6eG1wbWV0YSB4bWxuczp4PSJhZG9iZTpuczptZXRhLyIgeDp4bXB0az0iWE1QIENvcmUgNi4wLjAiPgogICA8cmRmOlJERiB4bWxuczpyZGY9Imh0dHA6Ly93d3cudzMub3JnLzE5OTkvMDIvMjItcmRmLXN5bnRheC1ucyMiPgogICAgICA8cmRmOkRlc2NyaXB0aW9uIHJkZjphYm91dD0iIgogICAgICAgICAgICB4bWxuczpleGlmPSJodHRwOi8vbnMuYWRvYmUuY29tL2V4aWYvMS4wLyI+CiAgICAgICAgIDxleGlmOlBpeGVsWURpbWVuc2lvbj4zMjE8L2V4aWY6UGl4ZWxZRGltZW5zaW9uPgogICAgICAgICA8ZXhpZjpQaXhlbFhEaW1lbnNpb24+NTM5PC9leGlmOlBpeGVsWERpbWVuc2lvbj4KICAgICAgICAgPGV4aWY6VXNlckNvbW1lbnQ+U2NyZWVuc2hvdDwvZXhpZjpVc2VyQ29tbWVudD4KICAgICAgPC9yZGY6RGVzY3JpcHRpb24+CiAgIDwvcmRmOlJERj4KPC94OnhtcG1ldGE+CkKjgdUAAEAASURBVHgB7Z17zHVHVf933/eJv1BENGq1IlolRAyBKFBtMeIFwy1pvRAlghEKqYBpogL+oVREQCJGCWAEFRJahQoSFDGoIIqK1oZKIFFTogWrhrcgKEYgBIh9fvuz2+/T9cw7+3bOvp/vSubMbc1aa74ze2bt2fucc8FxSYXJCBgBI2AEjIARMAIjIXBmJLkWawSMgBEwAkbACBiBCgE7G54IRsAIGAEjYASMwKgI2NkYFV4LNwJGwAgYASNgBOxseA4YASNgBIyAETACoyJgZ2NUeC3cCBgBI2AEjIARsLPhOWAEjIARMAJGwAiMioCdjVHhtXAjYASMgBEwAkbAzobngBEwAkbACBgBIzAqAnY2RoXXwo2AETACRsAIGAE7G54DRsAIGAEjYASMwKgI2NkYFV4LNwJGwAgYASNgBOxseA4YASNgBIyAETACoyJgZ2NUeC3cCBgBI2AEjIARsLPhOWAEjIARMAJGwAiMisDRqNIt3AhMiMBf/uVfVtoUp6q/8zu/syCYjIARMAJGYFoELjguaVqV1mYEhkMAx+IXfuEXKoGkm5wJOSE///M/X/E///nPH84QSzICRsAIGIFaBHyyUQuNK5aMgJwMORg4EIQmZ4P+yMGQgxLLltxf22YEjIARWDMCfmdjzaN3oLbjMHzXd31X1ft3vetdBQEno83RoAFtCTrQw+kgbzICRsAIGIHxEPBjlPGwteQREJCT0eUUo6v6MWR21W0+I2AEjMAhIOCTjUMY5Q30kcclcgp0kjFUt5D3Hd/xHZV8vdcxlGzLMQJGwAgYgaKws+FZsAoEcDRwCHAMxiAepXBagh47HGMgbJlGwAgcMgJ+jHLIoz9h3//u7/6u+JVf+ZXijW98Y3F0dNRLczzR6NVwB2acjr/6q78azanZwSQ3MQJGwAisHgE7G6sfwnV0AGfj4Q9/ePH5z3++l7PB5s9LnHqhc4reTuncTNEf6zACRsAIzI2AH6PMPQLW34gAjgaPN6Yk9PEoxY9TpkTduoyAEdgyAj7Z2PLoLqhvu5xscKoBKa4yE32g049TJgLbaoyAEdg8AnY2Nj/Ey+hgX2eDUwUeZ0z5+CRF6oILLjj5DY+0znkjYASMgBHojoAfo3THypwTIoCz0eVHusY0Cf3xl0bH1GXZRsAIGIEtI2BnY8uju+K+scnzVdc5Se9uzGmDdRsBI2AEtoCAnY0tjOJG+zDHuxoRSp2s+EXRiIrTRsAIGIH+CNjZ6I+ZW4yMwJI2dxyOJdkzMvQWbwSMgBEYBQE7G6PAaqH7IMDmrlOFfeS4rREwAkbACCwDgaNlmGErDgWBW265pTh79mxjdz/2sY8Vd9xxRyPPlJV8BdZkBIyAETACuyNgZ2N37NxyBwQe/OAHd2r1iEc8ohPf2Ey8pGpnY2yULd8IGIGtI2BnY+sjPGL/0ncZ0jyq05c8P/KRj7T+XPkv//IvFzfddNOIlvcTPfe3YvpZa24jYASMwPIQsLOxvDFZrEU4Dn1/dyJ1Nr70S7+01dl47GMfW7znPe9ZBA6catjZWMRQ2AgjYARWjMBmnA02NV4qjC8W8guU/FZCLGOs9AJirk2ubMXjO7jpYFm3+bIxx9ONff7TJMoZvBMWaASMgBEwApMisJOzoc16UkszyrBDm5Keq5OPd6NyNCiP6SguOhjcuZM3nY9AEy7UaSzUsolfPE1xHLMmvjHrsKHOuRpTr2UbASNgBLaEQK+vvrJ5ENi0WYT1V9xDA4IOyScmqCzqkvOgWHXcUeNw6BcgsVNy4EGWiHK1J93lbly2IJe0gmQeUkzf+Q8RnDSwe9e73lV1vwuOdTgxHhqTOp4pyukbpLjK+MMIGAEjYAR6I9D5j9jYiNlQtJmgSYuw4jrtcaNnEyEP5dqpjDh9DBLrKgHlBzzYRJ02KOzU3Shlqd3Sn8qnXDLEQz5Xhn7pJg0/QTZStnWir2AL4VyQBxNwYEyEG/V9/4gNOVCcb1XBhB8aS8UTqrYqI2AEjMC2ECj/VbMzlT0/Lhf/E/5yMzmVP6m4KwEvPOVGlFZVZWk5/ARRWk858iLJBtlGG8kgnZNBe3hUL54oO6alT3yxverqymL9VtLgAN6EFBPKctjdeOONFf/nP//5TjAwPhrTTg1GYEr7N4IKizQCRsAIHAQC/IX3TsRmkNtUEKY66knXERtVrE83rpiXDMpiOe3Jo0sxvJQTVK72qiOGHx6IWIE8dZFiHeV1fWOD2jKBC33MbcRgQjlYpdTX2aA98ghzEP2cS/cc/bVOI2AEjMCYCJwpN4ediKPyckHOti0X6ZPn96S7kl7yhJ/j+VxbeFSODQSOuXlsQnm50VV5ypUn5r0CyiDyOaIcHuR1oTo5XdqujQdM4rsZ5aQ8hRO4EcBkKFyYX5I7NV7xUdzUuq3PCBgBI7A1BI76dkiLf9uG3HXDiXx6zwIdch6a7FNb+EWkY7nq2BxFKlM+9kXfZIll8EW51OUcrcgj2VuI6W/6bkbar1if1u2aZxzBmfc34vjtKq9rO/ShN50DXdubzwgYASNgBBIE+hybcDxeLsKnmuSOzE8x1GSQk8pSvtxksq1ybcQY7ZAc6mK5eIkjT5pu0o+8pvqoY+1pcCmnSxUiRmm/wAS+Olzg5zHK4x//+OOu72xEHchtkh15903Tz6l07Wur2xsBI2AE1oJA52+j4KPojo80xJ08JwHlZnNnQcMnvJDalIt6US7qVVn8EF+so4y84shPmnLurGUHd6RqT116h5rmYx/oo05YUj5kNclL+VM715SnL/G0oqlv4gV/4T50XzUuTXbsq3OKfuxro9sbASNgBFaJQFevSHd85WZS3fkp5q52bsIG7BPFtMpydlKmtorFr/7mZImHuK0+8q4h/Yd/+IedTjPSvoDfmIT88gIb7dSB+Yz8sfsxJkaWbQSMgBFYKgK9TjaW5k3ppKGrXdx1E2gHkYbSfFV4V7l4VLb1+Oqrry5e85rXLPadBU44GK/SySuGOOVAVjzBObTx3vp8dv+MgBFYBgKrdjaWAeG2rHjrW99aXHnllYvulB537ONwyMkgxsEoTzQW3WcbZwSMgBFYMwJn1my8bR8egaU7GvQYZ0POAV/HJU/oQjgXnI4QIORIVpf25jECRsAIGIH+CPhkoz9mbrEgBORk6FEIpulRCC/68vKvCEcDop5TEfFVhQN8YAsyh5Y7gGkWYQSMgBGYFQE7G7PCb+VDIoAzIYcilSsHQHFav28eRyM6PDgzkJyhfeW7vREwAkZgzQjY2Vjz6Nn2RSEgxyI6HRhox2NRw2RjjIARmAGBxTkbPIMvv7pzCgruVrvckXblOyXcGSMwEgJ2PkYC1mKNgBFYHQKdnA02ce7WdIcWe0mdFtVYTpq6pvqUX3JwLGgn4rm7dMuOOueDF//grauXzBhLV5c2KS95bBrrJUPkE4RNtFvpN73pTcVjHvOY4l73upeKHC8MAY2fTz0WNjA2xwgYgWkQ6PIDIOVGelxu4FnWcoPOlquQetp3IfFFmeilvE5/KrdEreKXrLQ+l0d2lN/WFt7IE+3Nyd+3jD6Jol6Vvf71rz8uHY3jckM7/t///V8VO14wAswh5g1jq0A+nVsL7oJNMwJGwAh0RuCoXOhGpS5/qCYDysW2uosvF9wqppwyEXf4Ma9y3TWSz9WLry7WyQly9O2FXeTUyd+nHJuwhb4TsI849hn5n/zkJ6uyX/3VXy2e9axnFc9+9rN90rEP8CO3jeOnNKcejK1OP7gOINWPbJLFGwEjYARGQ6Czs6FNDktYELtuxtq8u/YA2VAqnzyLcFoOrxZj4vLOn6JTRLl4TlWUGcrVBtl1fGm7ofJdsEzta7IRpwOcXvrSl9rpGGqQRpaj8SRmPhC4buR0aN7Lcc9dAyObaPFGwAgYgb0QOOramrssLXIsflogu7bvw9fXQUE29mAfCzUkW7VwE6usYig/6vpQV652feOom3dK5DwgR/nUNuqwI9oS09Q30RKcDo1FtDPXz1gf02rfpw3t1S7K6isjtp0yjZ3RVo051xz9kgPiU48pR8W6jIAR2BeBM10EsPix0BFSUl1avk9ejg2yY8jpR48WZPHKVpWzuVMXCR7KxEMd6ZiP/E1p/UtsHU/Ugy3qB7rU19g2tZ+62CbytqXldNznPvfZqW9t8tvq2Rz1a530gT4TuhD8atuFP/KobcQNWV11R1lzprGXUD4YrZxUzRdwJfDtLfVLfZ3TXus2AkbACGQR6Pp2R7lhHpcLXcVOutw0T4LyOVnU9SF0EKJ8pXOyqINfRL7sqLKdY2REOU0N0REpZ1esJ522oayrPnibdPCCKH3OhbNnzx7/9E//9PHtt9+OmMmJPqa2k+/a913Gkk6Cd64tZV11Tw5WT4X0g5COu8p7ijO7ETACRmA0BDrtyizcccOI6TbLmnhzG7DKWDBFSlOnetXFGD7qm3RGfqX3WZzR1WSTdKSx+pSW5/JtOnLOxpkzZ46f85znzOZkqB/0Mx0P8l37n3MYJLspZkxybdGd2tMkZy119FdYR+dDWO8yR9fSd9tpBIzA8hE4KhemVuJ4tlzICuJy8Wrljwy5dsghcDwsUhl50no2TZ53OMRLmnrlqYfIq4z6rqQ2iru2g482emmvb7uuOKIDDLvyl05G9WIo30i5+OKL+5g1CS/9YXzioyfyjLfmCjyRqCcw9hELtZOstF2UoTTt46MZySg344L2UYbysQw5aV6y54yZH3GOyEZwVR+xj/5Dqq8y/jACRsAIjI1Amz9ULk7H8a6IfLmonSprkkFbgtoRE5oo5WnjR1aOR7pzumQT8S6U2thFRh+d4u0il5MNnWScO3euS5PJeMCpnMPV+ChOMadcZfAzv0RqQ16yYp3aEcd25GmbksqJlRYP7dEBURflRTsqhhV90Bf6RX/oh0Ls74q6Y1ONgBFYIQKNvyDKHRFULkpVrA+VK1b5vndLyCOgL+pEbhfZ4tG3WXTqEGXJVulRvmssG6Wrazv4sSNnS1cZdXyve93rikc+8pGLPclgPMoNrzKfUwXGRfgRx3rwhae8lip+XoCkrXBTHj7u2sWXtkvzwg59tEMmPJBsiW1Su7Cp3LBP7KgarvRD/QWHSPQPUn2sc9oIGAEjsBcCK3SQbPKKENAdtUxO89x1l46Eqqu4nNDHlEOkI8FLHaGpHfVpW+SgX+W0Jy9K20gXPJFP/FuI1TcwiUHlW+ij+2AEjMD8CJwpFxjTAhF42cteVnzd131dFUhvhcoNvDpR4BSBUEfwiSJfXVq8sZ3KYqz3PigrN9TqVEX1yFZ70vFdkK3e7dMvQrkUVQFMCJx6EDhJIohPWDk2AkbACPRB4Gy5iDy/TwPzjosAw8GR/dvf/vbiJ37iJ4q3vOUtxWWXXTau0hGls2n/27/9W/GUpzyl0nLbbbcV119/fXHJJZcUpCkn1kZP/9nwCWpLQ/Kqow3toVw7yq+77roTR0KyrrrqqlOPcJBBmQi72Ggpj+3RAWEndVsmsBLW9JM0DpqCHr0I9y1j4b4ZASMwHAKN72wMp8aSuiDAZqrFnE2P/FqJzUibtPqg/hCziRFEqkvLqZecyN/UTrLEE9vFtOplD/lYr/dLKGezje+aUHZIxBgQwIFYBF5N70aJz7ERMAKHjYCdjQWMP5vdVpyMBcA5iAlyQKLzQRnBdPdLpJq3wgQnGTJOQsSxETACIGBnY+Z5wKKsBXvtpxkzQzmoeu7e0zv46HgMqmzlwoSVTz1WPpA23wiMiICdjRHBbRJtJ6MJHdetGQGdasiJVl986iEkHBuBw0PAzsYMY25HYwbQrXIWBHzqMQvsVmoEFoeAnY0Jh8ROxoRgW9UiEfCpx93D8spXvrK4+eabi9e+9rV3FzplBDaKgJ2NiQbWjsadQHOn63cfJpp0C1dzyKcez33uc4sXv/jFBQ7HM5/5zIWPlM0zAvsjYGdjfwwbJSzRyWCRh8bc9LWRVIoyH7rDzVSdFElGF96TRiFBu13bBjFOToSAxmrr73o8+clPLt785jcXv/u7v1tcccUVE6FrNUZgXgTsbIyIP4unFs6lfdNEC7viNhjib07Ai6NCWfkT36M5LTgb4IeOvkS/+HbELm376jL/8AjI0dT1Iw1Dv2QqPV2vA9nRN0bPJz7xieJFL3pR8elPf7q44YYbioc85CF9xZjfCKwWATsbIwwdC5cWyaU5GV26y8KIMxGJMkjl5OscAfqfLt5qj4yYTvmoF+HMgJ90qrxLLLmK0zbYEO3Qj3bBR3pXvake54dBQOOo60pS93U+mAPMM+bYUI6p5hW2Ki1703hf+1N5zhuBxSIw/9+zbMuCcvE4+UMr0kuicjE9xibiOmqqi23KxblWDjKoFw959BJElBGaiPZQGx88yIZPOhRTV0fwE8aiLjaMpXvLcsGVUC6qp4LK+/Zdsoj3IeYScxa70vmP3A9+8IPH5f8dHZePUap5J3vVj33172O72xqBsRE4/ZeaY2vbsHwtWCwcS1806uyjvMvmq4W0z3Aiu05vTg52yJa+bbGvj66c/roy5Eq+7GLMc5TjVZkwVKy+5uS4rBkBYapNWzHlXXGFd9drFx2MI+2Jm3T+/d///fEXf/EXH//kT/7kqU5J/642nBLmjBFYIAL5VXKBhi7ZpC0sFCyQTYuk8KevBHgVq64pZhHtQ8iORD4ti/VKi0+xyseKhcNY8i23HwIad+ZbDCpvkgZP382e8adNm5MR9b7zne+s2pSPWWJxld7FhvOEuMAILBCBfjvAAjswp0laGPouUHPanOrusgirDbwsrpFYZClvoj46kIOOqIe0ZDTpEo9sqeON5dIVdeguNfJJZhrDQ1vT8hDQmGo85XxozubGjfHsej334U3RedOb3lTpecUrXpFWVfMJGwkmI7AVBPyCaLmy7EK8sKaX1cpFp9ALbLvImrINL6yVi1ilUjYrrrND9YpTvgsuuACnNS2u8ugj1LWNjfSNF17QhPg3UQh7ZXOdrj56sEUvhEpupeguXUqnMTrgJxYpLXld+qm2jqdFQGOj61bauX4h1TMPGdem6xpe5JQOSzUnJKtP/OpXv7q4+uqra5ugg3mFDpMRWD0CW/GapuqH7mbKgT8mvUYqN0w8g8Hsz90hggvlfTDqwp/ThY4+enYdM+nBBgX1M+Z3le920yHAeDGeuha4HgjkYznplCgb8vpJ5cc89hBMRmDtCPgxSo8R1CIz1ULTw7RerCy0U1BuoR5arzf5oRE9THnM1Xh9y/lIr3XmW1o2NmJT6xu7P5Z/mAgs5jGKjqNLL768tpZFOjLFqnJBKsibjIAR2B4CrEM8HtF6pB7qute1r1j1Y8bYwqOd0tEplrg+jtl3y94OArM5G1xAhPT5KdByQXFxz31hpTZqwdnO8LsnRuCwEdA1zrsRpCNpHaKMNA4G61V5XxrZJknjbEA4HCYjsEoE5jjQKTftk6NI0iIdiZcX9km96qaOZWM5qMfRxqntsD4jYASGRYB1RmsM17cCZVqDchrnXAuwC/3EJiOwRgQmf2dDF3nbBs5FBS9hSpJeLmwtPlPqty4jYATGRUBrkK7vLhu4bj7GtaxZOvYSTEZgjQhM+hhll2NIvupYXujVEWbpAIxKsg8lU+kctUMWbgSMwCAIsDZAiqvMxB885uFxSrnRTKzZ6ozA/gic2V9ENwlcKPpeercWd3Kx6dNuzItcFzF6yjuH6rnomPr69N+8RsAIzI8Aa8PcxNoEsV6ZjMDaEJjsZGOfF5zY+Mf6cRtkayHxacbapq/tNQLTIFD3Y3LTaL9bC+soP3bnm6G7MXFqHQgcTWkmm/muNLQ3jzycDGLuGLBNdw672uh2RsAIbA+BodeefRDC0eDGy2QE1obApI9RdgVnaC8eedwhsIjgZJQviNnR2HVw3M4IGAEjYASMQAsCkzkb2LHvycG+dxg4GRyHcqIhJ2NoR6YFb1cbASOwMgRYd/Zdu4bq8lLsGKo/lnM4CEzqbOy6scvJ2OdCQ3f6bsY+8g5nirinRuCwEVjSOqG18LBHxL1fIwKTvbOx7wW7a/uck7HGgbLNRsAIzIeAN/n5sLfmbSAw2cnGPi826USiL+QsEGrLY5NdT1b66jW/ETACRmAsBFhLTUZgbQhM5myw0bP5993w1Y6XOPsSpyE4GfwITl+9fXWZ3wgYgW0ioFPVJZxu+Jso25xjh9CryZwNwGTj56Sh68YPH/y7OBoavK66xO/YCBgBI5AigMOxBGcDG+T8pDY6bwSWjMBk72wAgjZ+PdpQPgcQdfDhoPjiyiHkMiNgBKZCYJ/HwEPZqPXS6+FQiFrOlAhM9guisVN453I4KOdC5gLSnYPq/J5FRM1pI2AE5kBA6xK/zTPnb/LI2VA8BxbWaQR2RWAWZ0PGRqeD9KWXXlo87nGPq6p9QQklx0bACEyNgBwMbnxI42ToJmifx7q79oP1EP1zOju72u52RgAEZnU24hB81Vd9VfHyl7+8+MEf/MFY7LQRMAJGYBIEUgdDSjl15ZQVmut0QzdfimWbYyOwFgQmfWdjLaDYTiNgBA4DgTYHI30/gjwnDGn5mGjpVMN/LT8mypY9NgJnxlZg+UbACBiBJSGAg0HglEKBPA4EjynY1OseV+gRylQnDNiFc6OTlSXhaFuMQB8EfLLRBy3zGgEjsFoEtHETi3Aw+n7jDX6cFGhMpwM70YO+MfUIC8dGYEwEBnc27rjjjuKjH/1ob5v/7//+r/jEJz5R3H777b3aXnjhhcW9733vXm0OifnFL35x8e3f/u1VUL95CfdnfuZnTpWpjvjd7353VUcM0V6EPOhnf/ZnVeTYCCwWgaEcjNhBnYCM6XDY0YiIO70FBAZ3Nj75yU8WvOy5Cz396U8vCH3ommuuKX7t136tT5O9eVkIWHCWStgn+tznPlf8+Z//eYEzx3EsXzP+zGc+c+JA5PoCL3dS9JF62kOUIY/YZASWigBzlrlOLGIu9z3BUNtcjDweqYzhcHB96dGJr7Uc+i5bIwJHQxt9r3vdq7j11lt7i7388suL5z3vecVjH/vYXm3bTjVYDNhgh7hoWbwI2oRZEPQMt5fROzBH+6WfmJCS6inn543pP3az2MrhQF786eMoJ6YlO1emOsdGYG4EmN9jOxhpH7kmeL+DNeaCCy7Y+3FH7IMfnaRoO792BDb91VcuXt15MFD7XsDIis6FHADFXSYDNhEiNbVXHTGBBY4AkY9xlbnrgzoF8Ue9lOWcpWgfzgh5cBNRprzkyQ7xODYCUyDA/JvawajrF9cAtkB915nYD65L2uuardPnciOwOgRKz3wRdPHFFx//3u/93ii2lBfvcXnxHpeDUwXyhL5E+9LZOGlGGrldSDakvE22ID/amdMV66Nsymkvm8mLlxhZ1NeR+BXDB7/aSFZde5cbgTEQYP7Fa5n53TaXx7CjTibXhdYZ7NL1o2tHMeWxH0vqQ13fXG4E9kGAY8BF0JjOhjqoC1+LATFlu1LbAhEXFtJ1JL60PtoGD/pSUp/Scvipo41i8UgW5TmSPZIBj3gV52zJyXKZEdgXAc3XeN22XXv76ty3va4d7CSktqscPpMROAQEDsrZiAPKphkXAPJ9Lvyu/F1kIouQUiwjnZNFWVoey2I70gQRaTBI28f6yE+58orF69gIDIkAczK3SdfN1SF1W5YRMALDI3Cm3GwOknjGWsJZPR8tN87qeSvvZBDa3kGgnlAuhq3YdeFBCPJSii9wks7J0nPitC15vVOhNO0JlEsfGFAWiXqCdIqfGN74Hkxs57QR2AcB5hdzi5ctiTXfSgejulaJ07m6jz63NQJGYEIEhvdfdpM4xWOUNsu4Wy+hPwnl13jPa5LeWaX58xq0FKCTkCOVE+f0UC6eXPu0rFyo06LafJSd6ugjp1aBK4xAiQDzmvkUrzvyufluwIyAEVgvAmcm9GsWr4q7/XIoT75t8alPfeqUzdSXC+FJGXnuvvoSbWhLQB5xjiiX/KgXXrVRnGtPWTyFiHp151jXTuXIjycs5If6KrF0OD4sBJiHazrBaLvGDmv03FsjsBsCm/7q626Q3N0KZ+MLv/ALqwIWyNwji/Kuv3IY7m41fgpbUuejTisLpRZLFvjyjvEUa5Ms6ggQ+kgTE5AJHvRf8itGfxiBDALMHeYLsYh5xPyBSC+V0utG10G0l7LYt1hHGoc9vfZSHvLIWDIWOZtdZgS6IGBnowtKK+TJLXzpQiYeFrd0gcOBUHnki1DUlUcepw8XAebH2hwMzek4anXORnrNxDZ90+hNdUcnXvVdnZa++s1vBMZGYBHOxoc+9KHiUY96VPFDP/RDhf57Y+yOW74RMALDI8CmuDYHow2F6Gxo04+OQFv7LvXoiI8neUmWR7oi4Uq+ywmJ2jk2AktB4GgJhvB/KGfPni1e+cpXFk972tOK+93vfkswyzYYASPQAQFthMQi7vrX8IhE9sY49kPlsSw90Yh14s/FeuyYtocXRyMtR67KFCPDZATWiMDszgb/PvoP//APxXvf+97iGc94RhX+7M/+bI1Y2mYjcDAIsBFq49Nmy4a4VgeDgVM/ugwiJxH0lT4TUoqPIVWX41NdPCkhLdmqd2wE1o7ArM7G7//+7xe/9Eu/VLzlLW8p7nOf+xS/8Ru/UTz0oQ+t/r7cj1PWPrVs/9YQqHMwdKzftJmuAYuc/bmNHxzU59gvOQyKVQd/TrbqFcNH4L0MOW2qc2wE1o7AbM7Gv//7v1d/J3/ttdcW3/u931vhKIfj+7//+4tv+ZZvKb7v+75v7fjafiOwagTY/HInGNpsu2yiawSAfnN6ofcmcCAU6vpc9/Im/LQlJtRRrOedDTBu4q+T43IjsEQEzsxlFO9pcIrxwhe+8JQJOBg8WuGRyoc//OFTdYeYYZHqS7u06avD/NtFQBstmy2BPMTGxwaoTXCrGyH9JcTTBfrKdUXI9Ruc5IBVYCUftIOnjnAu0ClCR8yr3LERWCsCszgbz3ve84qbb765+M3f/M0sbjxCedCDHlQ5HFmGGQtZALouAuIlbltscl3qqidtq4UxLU/zUb5sxc4cvfa1r80Vu2wjCDD+ci7qHAw5GRvpcrYbmv+KxSQHIy2nHuyaHA3JgAfeHCFfOqiHL+ZzbVxmBNaEwNny4nn+lAa/9a1vLZ75zGcWv/M7v1Ncfvnltaq/7du+rXjuc59bfO5zn6ve1K5lnKCCC/+SSy6pNF133XXFbbfdVqWJVV4VJB/UKaiqzwKCfEKfNuihTapX+mMM31VXXXXCzybDdKBtSo9+9KOL3/7t3y4uvPDC4pu+6ZvSaudXiADzmvG//vrrq0clcd7gXDIXnvKUp2Tnwwq728lkrjXmP9iABzEBAgvliXVdxuuFctYIHqlIVtW4/IAv8qqcGF0QbSH40CdiLBgn5IvqZKnesRFYEgKT/s7GuXPnqkcnT37yk6sXQ9uAeMMb3lD88A//cPEnf/InxWMe85g29tHqucB1kceXt7TYdFGsI9S2OyDpQSbPytOvxFHGS7Xf+q3fekqt2imOldgMNb3hzmJGqKOLLrqo+NjHPlZVc+r0rGc969RiWNfO5ctCQPODeaS05nHT/FhWL8a1hmtVj1CETdQIboSm64W6pvooz2kjcBAITPm3LldcccXxIx/5yF4qf+qnfur4a7/2a48//vGP92o3BnO5ANWKLZ2I2joqykXruKl9rjH8qdxUBnlkwyfemM7JTctyelKeL//yL+cXhk6F0uk4Lu+AU1bnF4aA5gPzRGNIWvNmYebaHCNgBDaIwGTvbLzgBS8o/vqv/7r2PY06z+6lL31pcd/73nf29ze4S+GEgJgg0h0OcRulbdv4dRTbxIfMcjMpyo2jCuS72CKZ6gtt1E5l4qmL+X0UjuEf/OAHnxz/1vG6fFoENJ7cpStgAfOE+aJA3mQEjIARGB2BKRyot73tbdUdVflYZCd1//iP/3j8//7f/zt+yUteslP7fRtxZ1guysfEEDGnAV1OBOCPfKS7Uo4XO+pI/NhHaCP41SbyUpa2z51slJPz5E6Z9I/92I9FMU5PjABjRmCOxLGJc3dik6zOCBgBI1AhcDS2N/Of//mf1anEs5/97OIJT3jCTuoe+MAHFq961auKpz71qdXvb5SL505ydm3E8+1yEa+a646RTNcTAHijzbRra9tWj8yUpEMnFMqnfOQlX3HkoYy74ab2kb90Mqp3OL7hG74hFjs9AQIa6/gOBmoZu9Jp7DyGE5hqFUbACBwwAqO/IPoDP/ADxX//938XWhT3wfrHf/zHi7/4i7+oftr8nve85z6idmrLJswiLopplaWxXjaLvNrgFadtwIqQq0eeHJ+0HXm1QV/UmfIiv6k+/SOo+IKoZC3RyaBfkZr6GPnWlFYf7WCsadRsqxE4cATGPOH5xV/8xePSKTj+wAc+MJiahz3sYcc/8iM/Mpi8roI4ntYjB9JdKPc4Qu2oKzdCZU/FdeUwyYZTDZJMFx41Ub9iG9IxD298jHL11Vcf33LLLRIxa4z94FVexo0h16dZDe+pnH7m+krfKTcZASNgBJaMwJmxfK13vOMd1e9k8MNdQx6v8/8pr3vd64pXvOIVY5neKrdc4Cse7jB1l5k2iicMaR156vlaa/zlQGRRXm4ep5pQBimuMgN9SCd9Qj5BL8KmKkonoyidjOK3fuu3igc84AFp9aR57AQ7TnogMFMoL7jqZ6aJKSsdjYqHkwDa0JawBmJ86KMCecaKfql/mo9r6I9tNAJG4DARGOUxCo9NyhOI4sorryxe9rKXDY4s72/wSOXGG29s/GGwwRWXAnObVCxjM4D6bgBt7dhs2DSb5LbJqAzLfMh+yVYcWXEyvvEbvzEWzZLGVpwGbGzDI2cgGBGQQXv1Pcfbtwy5Oex2keNHJH1RM78RMAJLRmAUZ4NFlz9Y+5u/+ZvR+s7Lot/93d9dlI9URtOxVsE33XRTQRBddtllxVd/9VdXQWVrjHG4mFvc1e+7qcvJYFMfSt4+Dgz9soOxxllpm42AEeiEwJKf8di2/RAo79yPCeVEqEK5QVf5/aRO37p0Bqr3MrB/aBI+xLuSZPS1T/3S+BAjg3KTETACRmBLCPDc13QACGhD1Ma2z+Y6NVzYPKa9wmYXHTgGwrQLLnYwuqBkHiNgBLaGgJ2NrY1oS3/YULl71gZJfpdNFjVsnF3avu997zt+//vf32JZvhpbu+jIt+5eig4woU9dCV7h2NSOuog5bXyC0RVl8xkBI7AFBOxsbGEUd+gDm6s2WG2Y5PuQNtCmjRZ55b9XHj/taU/rI7rixR50TEXCo60/sqcJNzsYQsmxETACRuC4+oqgcThwBLTJxs2zy4YLj+7SmyDcxdmQTU1yx6jDueni4MjRwk6RHQwh4dgIGAEjcBoBn2ycxuOgc2yc2uTlRMTNNAeO+Js26F2cDfS36c7Zs2+ZHKgmZ0t9JraDsS/ibm8EjMAhIGBn4xBGeYc+akONpx11YnJ3+ZG3r7Mh3VHGlGn6U+c8yTbhohj+JgdlSvutywgYASOwNATOlIulyQichwC/Q1FO1k6/vlluskW52Z73OxHnCe1YwC+Ylpt6R+7h2dDN714QIoEJv4URib6DkzCIdU4bASNgBIzAnQiM8qNeBnd7CMQfwVLv2JRVzsbMj27hdLDxRrrqqquKs2fPFq95zWticW06/RO4WsYRK9JfbJXzkTobmECf+el5SHhUGX8YASNgBIxAhYCdDU+E3giwocZNF6eDDZcNmXLS0eHo42xINqcFcxLOBhT7Ee2RU8EpDP1OCQxwQMSX1jtvBIyAETgkBOxsHNJoD9xXbaRyPHA6Ylr1fZ0NzFTbgU3uLA4HAoejj9Mjm6MD4scrnSE3oxEwAhtG4GjDfXPXRkZAm2s81ZBKnXBQ14fYqPVIok+7JfAKjyXYYhuMgBEwAktC4MySjLEt60GAO/8YcBJSx0KnHOvp1d2Wqi/00WQEjIARMAL7IbD6kw3uJnVHqc1P+f2gcesUAb3HULcBs0Frk+Z0grR4/+iP/qi4/PLLU5Hn5fm3Wh7HmIyAETACRmA7CKzS2YgOhp6Pa1OzozHO5BS+SMeJkDMhbZTV0fXXX19ccsklxeMf//g6lpNynA2TETACRsAIbAuB1TkbcdPTULDRNW124nO8OwL7YvygBz2oeM5zntNqwNve9rZWHjMYASNgBIzAuhA4s6+5bP6cJhArkOfInfwQFOU0ORWRbwi9ljEPAksYR9nQNN/mQcdajYARMALrQ2Dwkw3dAeNsDLlQI0/fUmh6dDKkzvUN5zYsZnznJjkb2IHzHElzPJY5bQR2QeBFL3pRce211+7S1G2MwKoQ2NvZqFt45RikaKQLd6yPmwyLvX6jQA6EYmRIL05Ik8wo3+nlI8DLoYzpEkgvqsq5lU3xWzbMQ811zU/F4ndsBHII/OiP/mjxB3/wB8Wll15aPPrRj86xuMwIbAaBvZ2NHBLxrjCtxzGgvu+CLP4m2aku59eHQBxnpefoBQ6FnA39iqjmnmI5IcpHJwSbsT86InP2Zw4MrTOPwEc/+tHiiU98YnHu3LmCOfSQhzwkz+hSI7AhBAb9BVEtuorBiYuJBXfI0wdkEdBDIG1aLgJ9fkGUXuhkQ5v81D1jPuE49Pn1UM1F2SpHRPkYRyeEcvIE0/YReO9731s5Gve9732LG264objooou232n30AiUCOzlbLAos6hCOBRNC2ZTXSVghw/0E0zLRqCvs8HGjcOhx2hT905zSvG++qMjouuFshxxneg0hHryBNP6EIjjjvV/+qd/Wtx8882Vg/H0pz/9ZFw9vusbW1vcH4G9nI3+6oZrwUbAReoLdThMx5LU19nAjrlON5hXfU819sEtbkhNpyHoYK7LESFNMC0LAY2nHqlpjBi3W2+9tXj9619ffP3Xf33xNV/zNZXh8IuHx3ZKL6tXtsYI7I/AKp0NLlDIF2YFw+I/dnE2GOM5Tjf4e3sW/aFONXYdHG1aat/kiHAdyAmBnzzBNC0CclT1rk9uDvHo5ElPelLxqle9qnjGM55RaC3DOSHNuNnpmHbcrG0aBFbnbOiCnAYeaxkCgV2cDfRq8Z7qcQr62NTnelekK9ZcAwTIj2UqGGb90DxtcjKigb/+679eXHPNNcUb3vCG4glPeMJJFWMqp2MJDu+JYU4YgQEQWJ2zMUCfLWJiBD7zmc9UGu9xj3v01jyVA6ANo89Lob07M0GD1BGRU5JTzV20TkRIE0z9ENC86esc8PsaP/dzP1e8/e1vLx71qEedUrqrzFNCnDECC0PAzsbCBsTmnI+A3t8Y63hZi/tUJyjn93D8kuiEoK3tsQw8dkRAoZ72nTf8fP+FF15YvOAFLzhPCePFvMcBXPpJ23nGu8AIZBCws5EBxUXLQ0ALe987yLaejO3ItOlfQn1fR0ROCLazGRIOjZiPYz9yk8Mx9Jw/tLFyf5eBgJ2NZYyDreiAwJAOh2SxUfrOsR786Ig0nYYgASzliMgBUVyvYX01mjtTnITZ4Vjf/LDFeQTsbORxcelCEWChh3iRTo9Vum5oLNxqS3qKzaJSuMGP6ITQvSZHROMTHRGVzQENp1nYv8uJAe1oP+XckXOzi71z4GudRiCHgJ2NHCouWzwCLMBxg2MhFsWNjM0BEi91bHpyWqpKfwyKAJgLdwQL+5wSjYfqyBPGJGyLj8/6zAW1m/o0TDYqHhMfyzYCYyBgZ2MMVC1zUgS0AOc2NW1cckaUn9RAKztBIDoiufE6YSwTjFU8DaFuqPHDjr5fM5WTMtc3lpbyGzBxjJw2Al0RsLPRFSnzGQEjMBoCbOSQ4iZHRA5HdERUVgnp8YGjitNB+7bTCk415jwVw1ZwabOzR/fNagQmQ8DOxmRQW5ERMAK7IIADIieE9m2OiJwQeHEiCE0khwOeuncx0D/1uxqpzbJhrpOV1B7njUAfBOxs9EHLvEbACCwKATZgAtTkhFCP0yFHRA6I4uhw5F7ERAcnIHOfKvhRCiNpWiMCdjbWOGq22QgYgUYE5IAo7uKIIFD8qcMx9yMUdRanCFJcZfxhBFaAgJ2NFQySTTQCRmA4BHAo5FQgtc4R4dRDJxmcKNQ9YhnOsnZJOBnYK7vaW5jDCCwDgTPLMMNWHCICLJzpHVqubAxsUr276oibVlcZu7TpKtt87QjgRGieEbNxp44EPPoGU7vE6Tiwa9f5QztOaHCciE1GYEoEjqZUZl3rQIAFmEUtRyxY1OeIuqb6XBstnrSD9GNdkpW7ixNv1eCuNn3u9NL2kqNYupVXjC165h/LSKsfKleMLOpE5JEDxXLVO54OAcZCX3+VVsYEJ2MrY9PUR/XZsRGYBIHyzWaTETiFQLnYHpeb96kyZcpFWMls3FavRlEHaUhl6K7TXzGGD/i66lQz9BD60lRt+tpl/n4IaM6UC+wxgfnTNN+og28J1NUW+OhX2semfi6hf7Zhuwj4ZKO8Gk3zIFAuhgV3XopTKzhBqTtFES/t2wieyKcTiiibO9zyMj8RRR12QWpLO7UhprzpGwrwiL8S5I9ZEWAsGC8R41s6kCfjrPI0jvNA6ZRnCXnNR81XbMLeLn1cgv2HaIPGSrEw0DxTrPI1x0drNt62j4uALgDioSe9NmFkK53qkP6mXuIAsJg22YjcKBt90inZerQR8+JTe+WJZVt8rEIZIeoSX1oeeaTT8bgIgLnmy5bwZ26l72DQP+YmMcG0HAS09qSOb7QwrduCw3gmdtBpIxAR0ELFAq103Fwj7z5pFstc6Cqz72IaL+QuOmQbvKRTxySVEe3JpZFhmh4BxqJ8jFDEMeljxVLGLbWfPKdysRxbmed6IVQvhcphXkpf+uC/dl6wZxy0/uBAMG4E5mUMsZx+M46ENY+bTzbWPoNHsF8LEqLjAkaeOiZ8Wk7dLiRHZpe22CHnp6tN2M9FnpLkpOUxL1u78NIOfvSZ1o9Abs7M0SttVDndbFbMN3h0J8x1ATEXSSsf5XAta06THurarhT7o8JcJ0+MS581IY4H7ZBDmcZ3TfAerclY2zoNAixI6UapRUoxljDp9yUtcsiVvJhukg+fLlxdiCy4baQ2kY/+1hF2EWQXcReib+iCv2ubLnLNMw8CbNC5uTOlNcyjpjku+7CVOZ3blOJ8bHJCaCvSNaC8424IMB5y/jQ23Vqez0V7BZyOvo7L+RKnLbGzMS3eq9DGxSEnQAaz2ECKq0yPD222aXvyBOqJobiox/Kq8q4PXWyxTJt73UVdV46MtL9RLmnZQcwCLVtTvpiHr0ln5HV62QgwjsxLzYM5rEU31Db3NOdkL85JbEM65iuh5QfypYO5S3uR0rTTtVInR20OPdacGdopiOMLxsovHW87G0sfoYntY7FhMWEhIU28L+liUKwFTXLJ6w6LMvIEpYmjHcjJ3bFRTpAjEttIHvUpqS4tJ4+MKEc8lDW1g0/OD3xtvJLreLkIMOcYx9x8mMJqNvyuujXPaaPrQWV1tiI7lU9/CZCuUeXlgFBHOzshIHEngTX4DO1oRPlgzthCbWOrdnPGR3Mqt+5lIhAnLmkWFy0w0eJ0YaJOFxcLE4sPceoYpO3QEXmoF49i6ZUdabnqkSWbKYOPNgTKI5GnnkUhdzRNG0hxlbnrg7JceVyQ69JRjtPrQoC5wpwhTEmab7l5WmdHnN9yDNJroK6tyuv6Knvgi/OcvHSRpv2hOSFgozVlzHmCbNZN4d13bBmfKcn/jTIl2ivWFRcXdWOfyS15OWcEuTnZtBn64kUPMlO5dTao78TYA6mt+pSzvWIsP7rwiNfx8hDQ2CqeykLdwfZxNqJttGfu6WYg1g2Z1vxGppyQVD7XixwQ6sgTpiTwwIahx5H+I3tsnCNW9AGHg2+wLJnsbCx5dGybETACi0OAry/OsZmk7170BUYbq+K+7ffhjzq7OCFjOyBjOV/IhXZ1CnfFWPgq3lXOqO1Kb8hkBIyAETACHREoHQ1uIY+JxybpKjevsVVNLp8+0T9C6VxUmIJrGqgT35A4IBNdyB+CsA15Q9rY1S71hXip5JONcnaYjIARMAJ9EOAOcuzn8tJRbiDFou9Y+wDXgbfLoxjElE7CyeMY0oS+JIxpVzoJO8mQzrlONaRfc0SxypcS29lYykjYDiNgBFaFgDaqMZyBMWWvCuRgbBcnBIcjvg/SZeMV1qjadSz1rsa+Dkvobu+kbChPNnq3naKBnY0pULYOI2AENomANqpdN6kcKGPIzOnZQll0QOjPru+DaKNGxi5jSXuddCFjLpr6faI+/bSz0Qct8xoBI3CwCLCh5I7qtdEQ77JRCdDoZKAnp0u8jpsRYCwIUJ0DQh0Y6ySENA4D7fqO49yPUOgLxByKcZVZysdSXyaxXUbACBiBpSBQbj6tLxPyYmC5YZ3wdXlRELmSXe4JVXopfd6iHYwJeBM0VuCeC9R3JXi7jHdXebvyqV+7th+znU82luL12Q4jYAQWiQB3urpzLRfjVhvh1x2ymMvNSMkqhkdUbhBVUnelKnc8HQKMByE9BWHcSiei1RAeX8CXjnNrw4EZ6ANztcs8HVh1q7ijVg4zGAEjYAQOGAE5Gl02HWBiw9Gmw+Ivimk5GOITj+PpEWBccs4hY+TxGW48fLIxHJaWZASMwMYQwNFgM2Lj8cnDdgZ3SAcDWUs6TeCUxScb25mr7okRMAIbRwDnwo7GtgY5dTI4udj3lEmnH8hWei7UsGGpdGaphtkuI2AEjMBcCOBocLS+hhON3IlLriximatf4kaFTUPapZMqnAIei+k9i7mdhDg2W03b2djqyLpfRsAI7ISAHA02oNymvJPQgRtpEybWS42ktZlSliP1R/XkaQfhXHWh2KaJH7nwEiDyCrKzqmj4gH9I4vECQU7GkLKHtnVX25bqOB3t2iG3MwJGwAhsDQE2DG268YVQNkwWcW0opAljkDZnyc7pirqxV3liNnJ+OwJbCTgW6gv1lEHE5FWmxwlVZYcPta9jlWzqI36kaSuKcrA9Z0fkp79j/GOr7Nklpq9LIM3dJdiS2mBnI0XEeSNgBA4WATY7SJuzgGDD1oZJWZ+X8LRRalOt25iQDxFr05UjQBkhkniQS9AmDA+8lEVHg3yO4I188FBGEMU0vFBdP6hLdTXxwg+hAyci8sb0nVx3nsDkylU/R4zd4B9xmsMOdOactblsOaW3PFIyGQEjYAQOHoFyA6t+3KlcrE9hUToeVXkshJfyJqIeWcQEKM1XheUH9dSJkJ9SrKcOHsrSmDqVSy9lIurKTaDiUT1lpAlNfaM+R2k5eQVkQ4pJU0c+p0vt0hh+wlIJTOck8MIG4iXSvOgsERHbZASMwMEhwCamDTjX+XQBZ5OsI3hzm2jkTzfNmKd9qo+2qU54ZLfS0gFvlKlyyZUs8rFtTKuNYuQpqIyYNnX6VA8PIVKuLNaTRl/aLuXZNY9c5A9FTfNnKB1NcuiLxrWJb646OxtzIW+9RsAITIYAi3DdpsUi3WejaJPVZcFHp+whJi+qa1+nV/zIIES51Kle8onhE4lfbZVXPTFlUb94FUde8dMmBnhjqLsLjzJjOtWxbx79CvQNXfsQ7ZE3B4FzHZ5z2JPTOQ8yOUtcZgSMgBEYAQEtxLnNRBtEbkPOmRI33Fx917KoD/tkW0ynsuJGJn54aCOKafHEMtKUqx/K0z6mJU9xaq/aqz6NkaUgO+BRmljptG3UBU+U06Y3ldWWlx1yOojRUWdbV3ltfEPXY3PEbWj5Q8g7KsE1GQEjYAQ2i4BeViwX41N9pFxv75cb2qm6XAb+yEc+lZlrl5bRjhcKRcigDMKeqKMqLD+oLzdAZasXEdWGQtIEvbxJmWxTTD0Ej/RTltZXTMmHbNILkOmLnAn7qX5ILzzoUl6y0ra5PO0IQ5NsIFaaMcBGYnTSV9V10a851adNF7l1POjBXo1RHd/c5WfmNsD6jYARMAJTIJBuVnXfPMnZwoIe22szyvHWldEGncS5jYgyOQFRBuW5NtEe0gS1h58QKeWnnrJYHp2V2JY0dsBLvCvRXrjnZCCbPqS253iHLkM3obyLr/qJrdiB88C3j5rsli20xymUw6LysWLZh07sXTQNcTxiGUbACBiBpSJQLsLV8+xon8q6HJeXd4zVETVtFMpF/ZjyrgRvH37kwt9mHzyEPvzwIpdAf5QnRhZlkllVtnzkeCVD8iQbnRAxIW0re+ChLsdD3ZCEHgK6CYxtLsDTlbC77xzpKlt82IMOdK2B/Eds5WiZjIAR2C4C3JWWm8jJMTN3n9x5lot0dSe7xp7HO3/S9A+K6argrjL6DKleMeW0VXvxcBdfbmanyqmTHNKQTkLgjaT2lKlNqkd1qpdNUY7qYhnpnKyUpy6PHgK2E6eEbE5XVE8+7V/aJpcHA+TncMzx9ykDl9XN4TV4RLbRCBgBI7ArAuUifnL3x11gzO8q0+3WgUC50R8TSoche2qhcvGpV5on1O9DkkM8FI0hcyjbmuT42yhN6LjOCBiBVSPAJiLnQot03QYCr2m9CMhhkAPBuMegcvHV9bRtntS1qyuP8vaZY5Kj+Vynb6nldjaWOjK2ywgYgb0R0AKtmIU6Eos/m5A2pX02gyjX6XERkMMgB0Ljp1jl4utqjeYC82VokmziPnZhi9qOYdfQ/ayT53c2ytlpMgJGYJ0IfPCDHyzud7/71RqvZ9tiKBf5Kpl+W6BczKt3OIhNy0OAdx8Ieo8itZBx4z0LYsIupHcsyg29qHtXpE7ujTfeWLzvfe+rqz4p/5d/+Zfij//4j6s86fvf//4ndTFNHUH0uMc9riB0oYc+9KHFZZdd1oV1Up6jSbVZmREwAkZgIASe+tSnFv/0T/9UvPvd7y6+4Au+ICtVLzCqMjoZbEpsLLtuTpLpeFgEcCogxgpSvsqUHxovxg5Svsrs8IF8zYtdHA1Uvuc97ymuu+66TtovvPDCig8n+Y477ig+9alPFZ/+9KeL22+/vSq/5z3vWcVf8RVfUXzlV35llf7whz9cvPrVr67SbR/IXKKz4ZONtpFzvREwAotC4OMf/3jxxCc+sfjXf/3X4oYbbiguvfTSWvv4JkokbUx2MiIq86XlSEzlWOR6qtOvXR2NnEyXnY+AnY3zMXGJETACC0Xg/e9/f/GkJz2puOiiiypH4+KLL260VM4GToYdjEaoRq+UY0GcexwiR3DfxyG7dASbpH+X9m7TjoCdjXaMzGEEjMBMCMQN6p//+Z+LN7/5zcUDHvCA4uUvf3nr5qC23kTmGTzwJ+hRlsZD1jAuciwo8zgJmW3Gdja2Oa7ulRFYJQLakPQMXZ1gIzp37lzxoQ99qHjYwx5W3HTTTaqqTizI9H2p70SAE3sjEMcNYcpLsBwJTpcg5VXvePsI+AXR7Y+xe2gEVoGAnp1rI+KbI0qrA1deeWX1It3//M//FPe+971PHAw984fPTofQGieWIyHMlZc2xoxgx0KIOAYBn2x4HhgBIzArAtHJaHuv4rOf/WzxPd/zPcU97nGP4h3veMcpuyUHGXY4TkGzVwZngpB7zwLBOBZ6HELaZARyCNjZyKHiMiNgBCZBYBcH4SMf+UjlcDzwgQ8s3vjGN56yk01Rd9xtjsuphs5UCIAfJAyVrwrLj+hYUGbnQsg4bkPAzkYbQq43AkZgFAT0I0q5xyVtCm+55ZbK4eC3Nl74wheex76LE3OekI0XyJFociyA4BAfhzSdjDXVacrAw0lQX4eXMdG4SJbiLnrFu8i47qdFXW4EjIARGAuBchGufoKZn23elf72b/+2sSk6ykX3eB8djQpWVAkGhPIk4uSnr8FGQeXiW1HXRjPtX68qAAAUb0lEQVRV8ycqACcw6kL7zD3aol9EGt1rJr8gWo6qyQgYgekQ4A6Nu+ly4dxL6cMf/vDG9roT5ARlX12NihZYqTtkv2cx/OAwd8uNv1VwF54mIbE9c5l5TCidnaZmi62zs7HYobFhRmB7CMjRmGrBRB8b7poX6bZZoGN3Pw5pQ2r/el6EZT6lxBhE56BrfVu7KKc83ajmcSzT2NfpjvJjOsqYKm1nYyqkrccIGIHqRINFs25xHAMiHBt+SXTuxXaIvtEHqMmxAFswhqbEuVK4wY8Uc2FLV+XM4oSIjzIR40Q5DgppOdlqhyzxK1bbuhh5jCv8yEW3SOMtWeRxtMWjevFPGq/5GZBtNwJGYD0IlAsrz01mMRjd5UK7t+5yszhG1hSELunDdrCLgTIC9sBnGhYBcAVvjUEO5zif4RM/lmhsZFWsi2nq2/JRhuygjQjd6INimjz8hLnJJxvliJmMgBEYHwHu7MpFb3xFGQ3c6e17usEdJXeJkO4cM6p2LkI+Qcf0pCOVm8nJ71lQTt40PgLgTGA8mMOkodz4qK5iKD9inrkf28S6mFbbNFZbeEnHNqSZm+JRjAzm01zXXeyDnY2IhtNGwAiMgoA2Z8WjKGkRyoIbN4sW9lPV2E1bqLxzPFW3S0abgWQqL1lsHgRtEqRN8yPAOKVjFa2iTmNGOXmNXfrII7brkpbeKC9tpzpinA9s4RGKylP+SfNzH61YvxEwAttHoFz0jglzEsfL5eLa2wTspl25YFdH1H0FoJdAewKyYlC5+PrKN/84CGjco3TGjXHSXE7nBPUi6sRHmdqSbmqX8pKHaJ/Ku7PmzkclyISifapfQuyTjXIETUbACIyLAHfw5UI5rpIW6eViXBDi3WZLk0InGrQrF/E29qoe+QTuZIlTQpbuNkmblocA467HWaQZJwJzWCcGWE2eMdY4xzmilzLhpxxeZDS1Q0487ZJcbEGG2jfJgAcZPDaEyGML/ZiT/Auic6Jv3UbgABBgwWTBLe+uZu8tdnRdeFmcWbRZrOMmEjtB3wjamEhH0kJPDCmuMv4wAiMgwByUc6/5huMx9/V3NEJfLdIIGAEjsEgEcDTkGDQZiFPCos3dqO4I5UjEO88og4WdQBuItMkITI0A85R5rvmneTy1Hak+OxspIs4bASNw0AjI0WCxxjFRPoJCHcGORUTF6SUggHOMg6GATXKY57TPzsac6Fu3ETgABFj02JjXQNGxwG4R9utucS19ke2ODw8BzVHFS0DAzsYSRsE2GIENI8CC1+XRxdwQ6I4w2oHtde9rRD6njYARaEbgTHO1a42AETAC+yMQTwn2lzaOBJwNXqLj0Ygej2A3L9dx4rGEo+hxem6pRmB8BPxtlPExtgYjcNAIsGGzWc/9NjyDIIdBcdvAiE8vhcLPaUfXb7S0yXe9ETgUBOxsHMpIu59GYEYEOB1IfydgDnOwg1MLORF9bFCb6HgsoU99+mBeIzAXAnY25kLeeo3AASHAyQY09/sPQ/3egBwPxQc0lO6qEdgJAb8guhNsbmQEjEAfBDhNiCcCfdoOxTukYzCkrKH6ZzlGYMkI+AXRJY+ObTMCG0KAdzcIcxHOjl78nMsG6zUCh4qAH6Mc6si730ZgYgTmfJTCSQTOxhJeUp0YdqszAotAwCcbixgGG2EE1osApxVs5jgTvBNRd3rBqQJ1dfVjIuBTjTHRtWwj0I6A39lox8gcRsAI3IWAHAW9f6G8AOJroZQRp0QZDgdOyZTf4tD7FYpTu5w3AkZgfAT8GGV8jK3BCKwWARwHAr8AShxJDoXeg1A+8uTSUz5OwcHAMZrSucn12WVG4NARsLNx6DPA/TcCdyEgZ6Lp1GKo/weZwuGQo4Ez5FMNT3MjMC8Cdjbmxd/ajcBsCOBcEIY8tejaGfTicHAaMsZvb9jR6DoS5jMC0yBgZ2ManK1lZATYvCBtnlWm/OBOXHTId7fCZ4pTC+HdJcbhwLYhTx/kaPjRSZcRMI8RmAYBOxvT4GwtIyGg43g2LL0zEB0M1MY7d3i2/r8WXRwLcOn7rgVtxiA5B/s6HJLDGCNL82EMmy3TCBiBfgjY2eiHl7kXgkC6sWBW2+bCJkzQ3f2+m9tCoKj6hC3qF32MBC5DvWsR5Q6ZZjwh+iAnSGVVRc0HfSXIodzKmNZ018VGYLUI2NlY7dAdpuFsLGxIxPsck8tZGWpzwh5Clw1yn5FDB9TkWFCvDbvNAYN3SST81D/ZH0+rcCwgYQEP/RXvkvpjW4yAEbgTATsbngmrQYDNhccmQzkIdFyPYfbZrGQX8ob+hUpkE3Tnjg6RNteln1rI3r6x+q52cjLIb7XP6qtjI7A1BOxsbG1EN9qfoU8iIkySvctJCRtidFh0Zx7ld00jC9JdvfJVYfkh52Ktpxbqh2MjYAQODwE7G4c35qvrsTb0IU80UhBwErhz7vM1TNmFrF0dFWQ0nVrYsUhHynkjYATWiICdjTWO2gpt/o//+I/iiiuuKN75zncWX/ZlX9arB/zfxpiOhozRCUUXh0OnIbTt4mjolKLp1MKPBjQSjo2AEdgaAnY2tjaiC+3PrbfeWtz//vcvzp07V1x88cWdrdzlxKGz8AxjF8dGjgaPNXCC9HgjisO58KlFRMRpI2AEDhkBOxuHPPoT9n0XZ0Ob+tAvXTZ1GweBE446nbIJB0MnILSBfGpRweAPI2AEjMB5CPhfX8+DxAVLQkDvLExlE04EAaeCEIm8HArKcUrkaIhP7WU3eZMRMAJG4NAR8MnGoc+Aifrf92Sj7YRhTLNzulNHQ/pxJvyuhdBwbASMgBHII+CTjTwuLp0ZATb8uU4FpFc2EMffeAAaeHAy0tOPmWGzeiNgBIzAIhHwycYih2V7RvU92eARxZybed03U3Au0q+q6pGJHY/tzVv3yAgYgWEQsLMxDI6W0oJAX2eDb4V0+Uppi9qdqznN4P0MvQSaE2THI4eKy4yAETAC5yPgxyjnY+KSmRFgo4f0OKPKzPAhO+pUx5MMpeMLpCqra+9yI2AEjMChIGBn41BG2v3shYAcHRwOpZsEyLEgbnNSmuS4zggYASOwRQTsbGxxVBfcJ35B9Eu+5EsaLbzhhhuKRzziEY08S67s4pws2f59bcPhkvOFrK4OW07vPm1z8lxmBIzAPAjY2ZgH94PVes011xS8j9FEn/3sZ4tv/uZvbmJxXU8EmjbtXetyJuBkyNmSXGKIctKE6IxQxwu56a+xilfy4IsUdcVy0m3v28Aj+akt1HUl2VBnY1c55jMCW0fAzsbWR3hh/fvABz7Q+nPlbALx3YeFdWGV5tThCdZ8u6Zus9xlQ1YbZOpbRZSJUl3UpY6GeGMMX2yL3XIUJF/1uf6KRzKVV0x5nZMSedReMXXSqzLHRsAInEbAzsZpPJxbCAJNi/uUJm5pE9mlL2zm2tC74C5eYvRJp8ZTecminAC/2sQ60uIhnWtPOQRfE6VtxRvLY1r1xH3LY1unjYARKAo7G54FRiCDQNvGlWniorsQ0NeWcxhSFjdupcWrvMAUf1quepWnfLmTDdpIj9K0VxkxeUJfUtu+7cxvBA4FATsbhzLSK+qnFvs5F3BtQCuCrdXU2Cc2Yx5dxLJWAR0ZGL+cXB576KfdoyjxxzjWk9aph+aG6qOemFZ9GqftqVeZYuQojd6UhF1aTl7tcnUuMwKHjICdjUMe/QX3nUU7LvpzmKpfBp1D99A603cihO1Ym2Nuk0YnIVLkw5b0RCLOg9TW2Ke0PylvTjfOD5TaFN9hkX2SD398V4S8yQgYgXYE7Gy0Y2SOGRDgDlibwQzqq01vS84GGOrxhjZibbLEYN30a6l9x0CyY7tcGbYQtKnLBngpF8W2uTRlufmC86Jfoo3y9O0X5KscG0jLFukmlhMkXtXJlrRc9Y6NgBG4E4EzBsIILBEBFm8Wci3mU9qozUbxlLrH1BVPAuLGDNa7Ola58dG4saHHdF3f4BMJczZ3tSXWZg8f9sZAPf3BQSUd6+S8SD6xdIiPNrFd5CUtxwT+lCijrWSm9c4bASNwJwI+2fBMWCQC2gjYZHKL/JhGo3PXzXdMu/aRrc1UMnLvTqgujaNjEutSmeQhOTW009jFNJt3dALgV9tKwF0faks2OhuRR5u8xgs5lKk8x0tddHDgUbvITxpe9SetUx4eTo2ITUbACOQROJMvdqkRmB8BbUK5jWgs67RhKB5Lz5Ry6QsbN4F0Xzx1YoDNtCVIZuxHqkMODeWQ6qOjkTqT4q0atHzIBmKRynAmCNgqoi7yUpfWi5eYOtkcy3Pp2KdcvcuMwKEjcHToALj/y0WAhR6HI92QxrKYzWVrpxrphslmSxnEZoxDECluxiqnjBCxyfGJX/KbeMSrEwnlo7NR117litVWsRwE7CBEmWmfVUcMr+qRrTrJJW7SGfmcNgJG4DQC/ov503g4NxIC//Vf/1W85CUvKa699trii77oi3ppYQOAxr57jBtNLwPNXCHAZk1gk043ajbpuo2axmonKNv4xaeY9lCqtyoMH6meUOWkETACIyJgZ2NEcC16GATYIHAEuAtu2rD20YZc3isY26HZx0a3NQJGwAisFYGjtRpuuw8HAe5WcQJ0wjG0wyG56ZH+4SDsnhoBI2AExkXAJxvj4mvpAyKgEw45H/uKRh7vIUA+0dgXTbc3AkbACNQjcKa+yjVGYFkI4GQcHx9XLzXu+1VDTjN0omFHY1njbGuMgBHYHgJ2NrY3ppvvEY9R9C0VOR2cUrSRTkZoA+Fk2NFoQ831RsAIGIH9EfBjlP0xtIQZEdD7G3ocom8j8JXO+GNUckaox1ER34ymW7URMAJG4GAQsLNxMEO9/Y7K8VBPcTb0OxI4F3YwhIxjI2AEjMC0CNjZmBZvazMCRsAIGAEjcHAI+J2Ngxtyd9gIGAEjYASMwLQI2NmYFm9rMwJGwAgYASNwcAjY2Ti4IXeHjYARMAJGwAhMi4CdjWnxtjYjYASMgBEwAgeHgJ2Ngxtyd9gIGAEjYASMwLQI2NmYFm9rMwJGwAgYASNwcAjY2Ti4IXeHjYARMAJGwAhMi4CdjWnxXqU2/YeIjOfHs2KZfp1T9fvEOVlRV0429tCuLuTaxDK1i2V907fddlvfJif8u7Tdpc2JQieMgBEwAhMj4B/1mhjwodRpg8z9KiabM//5kauL7XL1qX1Nv8opXn6pc4ifAEdXqg8d6o/0pTH1+nt4frZcafoK5WRWFXd9pPKFUdpO8mJbpaU3YpryKx95aE85ZQTxSG6sVxk8Q2EumY6NgBEwAmMicDSmcMseHwE2qJS0caXl5KljY0w30hyvyuAl0FZEmk2P8iaK9WpDTIgU+dj89TPj8EQ92F7nSEV5dWlkEVKK+tM65VObVU6cq8uVoTstj/mYlvy0TY5HvI6NgBEwAktEwM7GEkdlQTaxCWtzVox5pLm7pp6QksqI4SWwSRJIU06IRB1l6SmJ9MCbtontu6TRkRLyY7nsS/n65rEVucgTpX1RXdQvXmJkEExGwAgYgTUjcLRm4217cbKR6RgfTLSBDYUP8uo2vFy59Ksu2oZN2oCpF49itR3K9pwc6c/VUUZ9pDqbKI+86mcsI63TGMmhr5ze5AieKBfnhDwUy8lHPeRNRsAIGIGlImBnY6kj08EuNhttOGxoSvOYYWjShtdFrjbXyCvbYllMSz58SiuGT84Im2/aPx65SH7EIcpXOspUWS7Woxz0Snbkk5xYF9ORlzT8aqM45VEeOQT4dMqjNionT9pkBIyAEVgDAnY21jBKGRvZaLQBp5sO+Tk3o/R9C72wGbuBjTgGELbKXjkq5NW/2C6m4YHU3ypTfqhceckhhjcSToXsUx18qUNDG+QSJE9yKIPUvsrUfKSPbGrYTool+6TACSNgBIzAChGws7HCQZPJbMxx44sbk9JdNkDJa4uRKXlKs3k2EXzRRvFie9zkZS/1kp22Q5fu9OGTLaQh+GkbeShP+SiDdHpBPe0U6vjlCN3Z+u5P+KWbOEdRJmlkdSF4CdhmMgJGwAisFQE7GysdOTYfbdbqApuSKKZV1iVGbtqWPCHWRUcnlkcdbLy0S4ny+OiDehwJyrUJIxOiTBTTKlOsOvQRyKtMPIqRTQA/Yog2OB+5Ew3qkVVXp3raw0dIKeohrXzKl+a78qXtnDcCRsAILAmBoyUZY1v6IaCNjY2yD2mTje20AcaNMqaplyMgXbGeMsmTXbEsbZO2jY9ekJPWq30uhpc2BDZ8iDKC0lWi/KAMPuK4kZPGmaCcEIm6tCzWK037KFPl6UkL5U2Oi9oRYyshJzfyOW0EjIARWDIC/lGvJY9OjW1sPGxAIjZCHIHcBhb5xE8cN8/08UTkU1r8iptOAdQmjVO7VY/MnFzKov30MW7cyJNM8aV2IUPYiIc2kJwnnbKoXrYorpjDR05vqD5JpvafVIREan+ULTuxi7TGSeV19gXxThoBI2AEFoHA0SKssBG9ENCmqEZsOgRtQipvirtsVJJHjM5Ub5P8XF1d+1geTziQEetiXra19YP6HA/to+MS7VUb9TvWRRtS23J8bTxpG8mnXWwb0/Co/7n2LjMCRsAILA0Bn2wsbURsjxEwAkbACBiBjSFwZmP9cXeMgBEwAkbACBiBhSFgZ2NhA2JzjIARMAJGwAhsDQE7G1sbUffHCBgBI2AEjMDCELCzsbABsTlGwAgYASNgBLaGgJ2NrY2o+2MEjIARMAJGYGEI2NlY2IDYHCNgBIyAETACW0PAzsbWRtT9MQJGwAgYASOwMATsbCxsQGyOETACRsAIGIGtIWBnY2sj6v4YASNgBIyAEVgYAnY2FjYgNscIGAEjYASMwNYQsLOxtRF1f4yAETACRsAILAwBOxsLGxCbYwSMgBEwAkZgawjY2djaiLo/RsAIGAEjYAQWhoCdjYUNiM0xAkbACBgBI7A1BOxsbG1E3R8jYASMgBEwAgtD4P8DyjzYYrml8MAAAAAASUVORK5CYII=;" vertex="1" parent="1">
                    <mxGeometry x="40" y="40" width="722.02" height="430" as="geometry"/>
                </mxCell>
            </root>
        </mxGraphModel>
    </diagram>
</mxfile>